<svg width="64" height="64" viewBox="0 0 64 64" fill="none" xmlns="http://www.w3.org/2000/svg">
<circle cx="32" cy="32" r="32" fill="#ECD4B4"/>
<path d="M43.2275 49.6689C40.1351 49.6689 37.7425 48.9609 36.0498 47.5449C34.3571 46.1289 33.4863 44.1188 33.4375 41.5146C33.3561 38.3896 33.3154 35.1589 33.3154 31.8223C33.3154 28.4857 33.3561 25.2549 33.4375 22.1299C33.4863 19.5094 34.3571 17.4993 36.0498 16.0996C37.7425 14.6999 40.1351 14 43.2275 14C46.3037 14 48.68 14.6999 50.3564 16.0996C52.0492 17.4993 52.9362 19.5094 53.0176 22.1299C53.1478 25.2712 53.2129 28.5101 53.2129 31.8467C53.2129 35.1833 53.1478 38.4059 53.0176 41.5146C52.9362 44.1188 52.0492 46.1289 50.3564 47.5449C48.68 48.9609 46.3037 49.6689 43.2275 49.6689ZM43.2275 44.9082C45.848 44.9082 47.207 44.1432 47.3047 42.6133C47.4837 39.0163 47.5651 35.3623 47.5488 31.6514C47.5488 27.9404 47.4674 24.4085 47.3047 21.0557C47.2233 19.5257 45.8643 18.7607 43.2275 18.7607C41.958 18.7607 40.9652 18.9642 40.249 19.3711C39.5492 19.7617 39.1829 20.3232 39.1504 21.0557C39.0202 24.6038 38.9551 28.2334 38.9551 31.9443C38.9551 35.6553 39.0202 39.2116 39.1504 42.6133C39.1829 43.362 39.5492 43.9316 40.249 44.3223C40.9652 44.7129 41.958 44.9082 43.2275 44.9082Z" fill="#1C1E21"/>
<path d="M21.9854 49.6689C18.5511 49.6689 16.0609 49.0423 14.5146 47.7891C12.9684 46.5195 12.1465 44.4281 12.0488 41.5146C12.0163 40.7497 12 40.123 12 39.6348C12 39.1302 12.0163 38.4548 12.0488 37.6084H17.7861V42.2715C17.7861 44.0293 19.1452 44.9082 21.8633 44.9082C24.4837 44.9082 25.8184 44.0293 25.8672 42.2715C25.916 41.4577 25.9404 40.5625 25.9404 39.5859C25.9404 38.5931 25.916 37.7305 25.8672 36.998C25.8021 36.054 25.4521 35.2809 24.8174 34.6787C24.1826 34.0602 22.9945 33.7591 21.2529 33.7754L17.127 33.8242L16.9561 28.9414L25.0371 19.5664H12.293V14.415H31.6045L31.5312 19.3711L23.2061 28.7705C26.0706 28.9821 28.154 29.7389 29.4561 31.041C30.7581 32.3268 31.4661 34.2962 31.5801 36.9492C31.694 38.5931 31.694 40.1149 31.5801 41.5146C31.4336 44.4281 30.6198 46.5195 29.1387 47.7891C27.6576 49.0423 25.2731 49.6689 21.9854 49.6689Z" fill="#1C1E21"/>
</svg>
